# xmcd
#
# Track frame offsets:
# 150
# 31660
# 59357
# 86689
# 116911
# 161455
# 194063
# 233060
# 268596
# 303851
#
# Disc length: 4470 seconds
#
#
# Revision: 0
# Processed by: cddbd v1.5.2PL0 Copyright (c) Steve Scherf et al.
# Submitted via: FreeRIP 2.945 
#
DISCID=8011740a
DTITLE=Herriot-J1977 - Wise-Wonderful02
DYEAR=1977
DGENRE=Jungle
TTITLE0=WW 0201
TTITLE1=WW 0202
TTITLE2=WW 0203
TTITLE3=WW 0204
TTITLE4=WW 0205
TTITLE5=WW 0206
TTITLE6=WW 0207
TTITLE7=WW 0208
TTITLE8=WW 0209
TTITLE9=WW 0210
EXTD=All Things Wise and Wonderful 12 CDs\nby James Herriot - read by Christopher Timothy\nRennasance Audio - Jungle Country
EXTT0=
EXTT1=
EXTT2=
EXTT3=
EXTT4=
EXTT5=
EXTT6=
EXTT7=
EXTT8=
EXTT9=
PLAYORDER=
